HIERARCHY
ROOT Hips
{
	OFFSET 0.000000 0.000000 0.000000
	CHANNELS 6 Xposition Yposition Zposition Zrotation Yrotation Xrotation 
	JOINT LHipJoint
	{
		OFFSET 0.000000 0.000000 0.000000
		CHANNELS 3 Zrotation Yrotation Xrotation
		JOINT LeftUpLeg
		{
			OFFSET 1.363060 -1.794630 0.839290
			CHANNELS 3 Zrotation Yrotation Xrotation
			JOINT LeftLeg
			{
				OFFSET 2.448110 -6.726130 0.000000
				CHANNELS 3 Zrotation Yrotation Xrotation
				JOINT LeftFoot
				{
					OFFSET 2.562200 -7.039590 0.000000
					CHANNELS 3 Zrotation Yrotation Xrotation
					JOINT LeftToeBase
					{
						OFFSET 0.157640 -0.433110 2.322550
						CHANNELS 3 Zrotation Yrotation Xrotation
						End Site
						{
							OFFSET 0.000000 0.000000 0.000000
						}
					}
				}
			}
		}
	}
	JOINT RHipJoint
	{
		OFFSET 0.000000 0.000000 0.000000
		CHANNELS 3 Zrotation Yrotation Xrotation
		JOINT RightUpLeg
		{
			OFFSET -1.305520 -1.794630 0.839290
			CHANNELS 3 Zrotation Yrotation Xrotation
			JOINT RightLeg
			{
				OFFSET -2.542530 -6.985550 0.000000
				CHANNELS 3 Zrotation Yrotation Xrotation
				JOINT RightFoot
				{
					OFFSET -2.568260 -7.056230 0.000000
					CHANNELS 3 Zrotation Yrotation Xrotation
					JOINT RightToeBase
					{
						OFFSET -0.164730 -0.452590 2.363150
						CHANNELS 3 Zrotation Yrotation Xrotation
						End Site
						{
							OFFSET 0.000000 0.000000 0.000000
						}
					}
				}
			}
		}
	}
	JOINT LowerBack
	{
		OFFSET 0.000000 0.000000 0.000000
		CHANNELS 3 Zrotation Yrotation Xrotation
		JOINT Spine
		{
			OFFSET 0.028270 2.035590 -0.193380
			CHANNELS 3 Zrotation Yrotation Xrotation
			JOINT Spine1
			{
				OFFSET 0.056720 2.048850 -0.042750
				CHANNELS 3 Zrotation Yrotation Xrotation
				JOINT Neck
				{
					OFFSET 0.000000 0.000000 0.000000
					CHANNELS 3 Zrotation Yrotation Xrotation
					JOINT Neck1
					{
						OFFSET -0.054170 1.746240 0.172020
						CHANNELS 3 Zrotation Yrotation Xrotation
						JOINT Head
						{
							OFFSET 0.104070 1.761360 -0.123970
							CHANNELS 3 Zrotation Yrotation Xrotation
							End Site
							{
								OFFSET 0.000000 0.000000 0.000000
							}
						}
					}
				}
				JOINT LeftShoulder
				{
					OFFSET 0.000000 0.000000 0.000000
					CHANNELS 3 Zrotation Yrotation Xrotation
					JOINT LeftArm
					{
						OFFSET 3.362410 1.200890 -0.311210
						CHANNELS 3 Zrotation Yrotation Xrotation
						JOINT LeftForeArm
						{
							OFFSET 4.983000 -0.000000 -0.000000
							CHANNELS 3 Zrotation Yrotation Xrotation
							JOINT LeftHand
							{
								OFFSET 3.483560 -0.000000 -0.000000
								CHANNELS 3 Zrotation Yrotation Xrotation
								JOINT LeftFingerBase
								{
									OFFSET 0.000000 0.000000 0.000000
									CHANNELS 3 Zrotation Yrotation Xrotation
									JOINT LeftHandIndex1
									{
										OFFSET 0.715260 -0.000000 -0.000000
										CHANNELS 3 Zrotation Yrotation Xrotation
										End Site
										{
											OFFSET 0.000000 0.000000 0.000000
										}
									}
								}
								JOINT LThumb
								{
									OFFSET 0.000000 0.000000 0.000000
									CHANNELS 3 Zrotation Yrotation Xrotation
									End Site
									{
										OFFSET 0.000000 0.000000 0.000000
									}
								}
							}
						}
					}
				}
				JOINT RightShoulder
				{
					OFFSET 0.000000 0.000000 0.000000
					CHANNELS 3 Zrotation Yrotation Xrotation
					JOINT RightArm
					{
						OFFSET -3.136600 1.374050 -0.404650
						CHANNELS 3 Zrotation Yrotation Xrotation
						JOINT RightForeArm
						{
							OFFSET -5.241900 -0.000000 -0.000000
							CHANNELS 3 Zrotation Yrotation Xrotation
							JOINT RightHand
							{
								OFFSET -3.444170 -0.000000 -0.000000
								CHANNELS 3 Zrotation Yrotation Xrotation
								JOINT RightFingerBase
								{
									OFFSET 0.000000 0.000000 0.000000
									CHANNELS 3 Zrotation Yrotation Xrotation
									JOINT RightHandIndex1
									{
										OFFSET -0.622530 -0.000000 -0.000000
										CHANNELS 3 Zrotation Yrotation Xrotation
										End Site
										{
											OFFSET 0.000000 0.000000 0.000000
										}
									}
								}
								JOINT RThumb
								{
									OFFSET 0.000000 0.000000 0.000000
									CHANNELS 3 Zrotation Yrotation Xrotation
									End Site
									{
										OFFSET 0.000000 0.000000 0.000000
									}
								}
							}
						}
					}
				}
			}
		}
	}
}
MOTION
Frames: 11
Frame Time: 0.008333
-19.454768 15.708852 -0.529502 25.440116 87.130911 52.549189 -7.674751 -2.275380 3.672425 -3.494311 -8.766706 -69.718064 -0.328090 1.943314 40.804792 2.089247 10.569523 3.384108 2.922600 0.000000 -38.202100 11.930811 -3.896373 -1.730396 1.170069 -5.732603 4.594104 1.276875 -1.369408 15.009493 -0.231499 0.460363 8.823580 -0.008300 0.000000 -92.795400 -10.806831 1.808147 -0.614914 -2.810386 2.355658 -2.885706 -4.121614 2.256895 1.818854 6.732263 -2.134224 -6.124584 -2.065429 -0.170247 0.214109 0.000000 0.000000 0.000000 -5.211892 17.232414 1.921974 -47.546673 23.116884 5.065503 -4.985812 -19.356601 -0.010173 -5.506771 -0.561465 0.020443 -0.163632 -0.121524 -0.000000 0.000000 0.000000 0.000000 0.000000 0.000000 0.000000 7.638149 2.510716 1.731999 34.034042 31.736260 26.226233 0.643057 76.232480 0.011857 1.959823 13.891640 0.248961 -0.015251 -0.441130 0.000000 0.000000 0.000000 0.000000 0.000000 0.000000 0.000000 
-19.228891 15.734600 -0.550456 26.677184 87.197413 53.776161 -7.618524 -2.209719 3.539766 -4.075873 -8.650981 -69.255146 -0.338396 1.996913 41.838002 2.088619 10.458660 2.386554 2.693800 -0.000000 -37.913200 12.131704 -3.951085 -1.720510 0.803108 -6.031657 3.495876 1.037646 -1.628733 17.494369 -0.343822 0.323391 11.726617 0.045300 -0.000000 -92.797301 -10.999548 1.763662 -0.538982 -2.860950 2.320837 -2.885270 -4.162968 2.222672 1.771627 6.811097 -2.109042 -6.100582 -2.088802 -0.172018 0.216576 0.000000 0.000000 0.000000 -5.414501 16.843858 1.947500 -47.865739 22.410605 5.066557 -4.986215 -19.080517 -0.010373 -5.531663 -0.446954 0.015333 -0.161733 -0.119298 -0.000000 0.000000 0.000000 0.000000 0.000000 0.000000 0.000000 7.758165 2.514241 1.757795 34.727944 30.893660 26.803194 0.671982 75.933814 0.013166 2.059636 13.835346 0.260089 -0.012179 -0.434015 0.000000 0.000000 0.000000 0.000000 0.000000 0.000000 0.000000 
-19.006610 15.763707 -0.573128 27.868257 87.275588 54.938562 -7.572937 -2.134162 3.411570 -4.633381 -8.533498 -68.670821 -0.364748 2.034547 42.708840 2.084951 10.307018 1.241865 2.431700 -0.000000 -37.630199 12.324299 -3.961977 -1.728113 0.475842 -6.402577 2.243562 0.790424 -1.861996 20.215653 -0.502983 0.038182 14.606895 0.054600 0.000001 -91.736200 -11.128925 1.715506 -0.441162 -2.896363 2.279021 -2.881169 -4.202132 2.181432 1.718949 6.860183 -2.070659 -6.067829 -2.112963 -0.173946 0.221670 0.000000 0.000000 0.000000 -5.637520 16.417320 1.976444 -48.214895 21.670516 5.212399 -4.981956 -18.893278 -0.010669 -5.587548 -0.314373 0.009324 -0.159529 -0.117000 -0.000000 0.000000 0.000000 0.000000 0.000000 0.000000 0.000000 7.848633 2.524151 1.781011 35.427103 30.024294 27.376256 0.703158 75.545755 0.014422 2.177020 13.775563 0.273115 -0.009546 -0.425888 0.000000 0.000000 0.000000 0.000000 0.000000 0.000000 0.000000 
-18.788320 15.795910 -0.597256 29.091995 87.368135 56.119854 -7.533420 -2.049025 3.291579 -5.156514 -8.430284 -67.981756 -0.402432 2.056133 43.427342 2.081232 10.135742 0.011548 2.153600 0.000000 -37.355300 12.510477 -3.924251 -1.751987 0.190556 -6.836202 0.852352 0.548415 -2.063031 23.134862 -0.702563 -0.426997 17.351986 -0.019701 0.000000 -89.571800 -11.197774 1.662727 -0.325137 -2.917249 2.229452 -2.872403 -4.238814 2.132451 1.667511 6.887126 -2.034047 -6.033121 -2.137811 -0.175924 0.227491 0.000000 0.000000 0.000000 -5.874080 15.972012 2.008286 -48.589538 20.866019 5.516660 -4.972757 -18.790955 -0.011036 -5.674444 -0.166940 0.002417 -0.157039 -0.114547 -0.000000 0.000000 0.000000 0.000000 0.000000 0.000000 0.000000 7.922327 2.523260 1.802619 36.101683 29.150623 27.943043 0.736161 75.079703 0.015593 2.307875 13.718988 0.287837 -0.007352 -0.416956 0.000000 0.000000 0.000000 0.000000 0.000000 0.000000 0.000000 
-18.574340 15.831060 -0.622515 30.422457 87.476518 57.397572 -7.495764 -1.954286 3.182656 -5.638085 -8.353797 -67.202932 -0.447092 2.061931 44.001412 2.080166 9.965488 -1.245081 1.875200 -0.000001 -37.087501 12.690250 -3.837356 -1.791647 -0.047747 -7.317786 -0.656492 0.325004 -2.231539 26.203578 -0.931685 -1.104783 19.834002 -0.219700 0.000001 -86.423200 -11.210010 1.605514 -0.193822 -2.924508 2.172590 -2.859599 -4.272868 2.076161 1.617311 6.897049 -2.000844 -5.996934 -2.162575 -0.177888 0.233928 0.000000 0.000000 0.000000 -6.122288 15.507959 2.043221 -48.979309 19.993817 5.979487 -4.958860 -18.779862 -0.011443 -5.792114 -0.009511 -0.005088 -0.154324 -0.111898 -0.000000 0.000000 0.000000 0.000000 0.000000 0.000000 0.000000 7.980921 2.510375 1.822991 36.745388 28.264078 28.494250 0.770783 74.551753 0.016682 2.454662 13.668744 0.304555 -0.005637 -0.407392 0.000000 0.000000 0.000000 0.000000 0.000000 0.000000 0.000000 
-18.364565 15.869255 -0.648434 31.927894 87.600299 58.842437 -7.456485 -1.849496 3.086502 -6.074508 -8.312101 -66.346272 -0.495153 2.052641 44.435490 2.083791 9.814403 -2.474623 1.608800 0.000001 -36.831900 12.862503 -3.705205 -1.847108 -0.233455 -7.828592 -2.259268 0.129644 -2.373360 29.367846 -1.177022 -2.018938 21.928556 -0.578700 0.000000 -82.579300 -11.171320 1.544621 -0.049363 -2.919740 2.109530 -2.842877 -4.304933 2.013676 1.569702 6.897294 -1.977500 -5.961353 -2.187002 -0.179787 0.240364 0.000000 0.000000 0.000000 -6.380158 15.028185 2.080797 -49.372149 19.044617 6.596328 -4.940412 -18.860057 -0.011854 -5.937123 0.151959 -0.013289 -0.151449 -0.109006 -0.000000 0.000000 0.000000 0.000000 0.000000 0.000000 0.000000 8.032062 2.479381 1.843074 37.349316 27.364941 29.023329 0.806890 73.974673 0.017686 2.615924 13.628658 0.323269 -0.004356 -0.397374 0.000000 0.000000 0.000000 0.000000 0.000000 0.000000 0.000000 
-18.158918 15.910649 -0.674732 33.619285 87.740129 60.468020 -7.417204 -1.736301 3.003866 -6.457961 -8.305702 -65.422812 -0.543515 2.029830 44.731954 2.092857 9.693621 -3.633903 1.362400 0.000000 -36.598699 13.020470 -3.536508 -1.918315 -0.351699 -8.342671 -3.930463 -0.034223 -2.498213 32.569394 -1.425955 -3.180216 23.533935 -1.112300 -0.000000 -78.443000 -11.083408 1.481220 0.106383 -2.903798 2.041585 -2.822640 -4.336503 1.946311 1.524715 6.893780 -1.969880 -5.927768 -2.211286 -0.181618 0.246421 0.000000 0.000000 0.000000 -6.653655 14.531062 2.120042 -49.750471 18.019366 7.353414 -4.917750 -19.037567 -0.012248 -6.106964 0.313764 -0.021885 -0.148509 -0.105880 -0.000000 0.000000 0.000000 0.000000 0.000000 0.000000 0.000000 8.083102 2.425225 1.864268 37.908233 26.452031 29.523058 0.844576 73.358937 0.018619 2.792106 13.603179 0.343980 -0.003463 -0.387049 0.000000 0.000000 0.000000 0.000000 0.000000 0.000000 0.000000 
-17.957340 15.955511 -0.700516 35.578110 87.883463 62.354902 -7.371546 -1.610813 2.932139 -6.805975 -8.331461 -64.431077 -0.592664 1.994406 44.885047 2.107802 9.613601 -4.693228 1.141201 -0.000000 -36.386600 13.170222 -3.337897 -2.003362 -0.416465 -8.842891 -5.656883 -0.170814 -2.617486 35.771108 -1.667100 -4.551011 24.573787 -1.794300 -0.000000 -74.387500 -10.965760 1.418475 0.271954 -2.881397 1.972871 -2.799573 -4.367307 1.878191 1.481470 6.893469 -1.972084 -5.894214 -2.234260 -0.183310 0.252456 0.000000 0.000000 0.000000 -6.922909 14.022425 2.161974 -50.113701 16.895487 8.240569 -4.891271 -19.277336 -0.012504 -6.283578 0.451257 -0.029777 -0.145539 -0.102368 -0.000000 0.000000 0.000000 0.000000 0.000000 0.000000 0.000000 8.133772 2.356157 1.883937 38.435544 25.501764 29.985458 0.883353 72.715936 0.019438 2.970587 13.586006 0.365089 -0.002784 -0.376519 0.000000 0.000000 0.000000 0.000000 0.000000 0.000000 0.000000 
-17.759367 16.004185 -0.725948 37.700065 88.032789 64.402727 -7.330076 -1.479162 2.870508 -7.102991 -8.376532 -63.380371 -0.640972 1.948806 44.893301 2.127019 9.570725 -5.634392 0.946300 -0.000000 -36.212100 13.297377 -3.121816 -2.099675 -0.401475 -9.294875 -7.420734 -0.286361 -2.739758 38.924441 -1.893503 -6.089074 25.017597 -2.580799 -0.000000 -70.715200 -10.812080 1.357188 0.444160 -2.851679 1.903946 -2.774025 -4.400474 1.809854 1.441302 6.900586 -1.996938 -5.863750 -2.257362 -0.184938 0.257734 0.000000 0.000000 0.000000 -7.208431 13.500635 2.203842 -50.435982 15.686075 9.232402 -4.861495 -19.599206 -0.012656 -6.468501 0.571821 -0.037162 -0.142675 -0.098587 -0.000000 0.000000 0.000000 0.000000 0.000000 0.000000 0.000000 8.197002 2.259141 1.904922 38.920766 24.532555 30.406923 0.923891 72.045940 0.020178 3.154512 13.585739 0.387296 -0.002268 -0.365885 0.000000 0.000000 0.000000 0.000000 0.000000 0.000000 0.000000 
-17.564478 16.056894 -0.750590 39.947140 88.179492 66.574546 -7.294614 -1.342483 2.815710 -7.357318 -8.427480 -62.269545 -0.690109 1.894169 44.748914 2.148873 9.560655 -6.452630 0.776900 -0.000001 -36.074100 13.401204 -2.896313 -2.202776 -0.310815 -9.679176 -9.218047 -0.389237 -2.871281 42.004071 -2.099263 -7.705774 24.859284 -3.391400 -0.000000 -67.541300 -10.632482 1.299326 0.619639 -2.817034 1.837317 -2.746961 -4.436523 1.743770 1.403609 6.917870 -2.041725 -5.834730 -2.280124 -0.186490 0.262680 0.000000 0.000000 0.000000 -7.503563 12.968814 2.245543 -50.712727 14.386288 10.305507 -4.829114 -19.984128 -0.012645 -6.649004 0.662808 -0.043142 -0.139988 -0.094487 -0.000000 0.000000 0.000000 0.000000 0.000000 0.000000 0.000000 8.272091 2.138122 1.925425 39.375186 23.534806 30.781974 0.966173 71.351140 0.020820 3.335519 13.598937 0.409403 -0.001782 -0.355185 0.000000 0.000000 0.000000 0.000000 0.000000 0.000000 0.000000 
-17.372187 16.113729 -0.774318 42.222282 88.318217 68.776092 -7.270005 -1.204352 2.764794 -7.572855 -8.468973 -61.098164 -0.741766 1.831260 44.444912 2.171193 9.573959 -7.152284 0.630799 0.000000 -35.972000 13.478183 -2.669276 -2.306695 -0.144863 -9.976476 -11.047005 -0.486193 -3.014445 44.983624 -2.280767 -9.305652 24.132133 -4.139500 0.000000 -64.918100 -10.431653 1.245633 0.793384 -2.778568 1.774044 -2.719879 -4.476838 1.680926 1.366863 6.946399 -2.107947 -5.804963 -2.302748 -0.188024 0.267992 0.000000 0.000000 0.000000 -7.811427 12.418092 2.286083 -50.935034 13.019038 11.424032 -4.794885 -20.435527 -0.012472 -6.819464 0.722946 -0.047516 -0.137553 -0.090141 -0.000000 0.000000 0.000000 0.000000 0.000000 0.000000 0.000000 8.360654 1.991981 1.945692 39.806294 22.509961 31.109010 1.010707 70.628498 0.021371 3.508150 13.625076 0.431009 -0.001179 -0.344444 0.000000 0.000000 0.000000 0.000000 0.000000 0.000000 0.000000 
